<svg xmlns="http://www.w3.org/2000/svg" viewBox="0 0 60 60" width="60" height="60">
  <!-- خط أنابيب رئيسي -->
  <rect x="10" y="25" width="40" height="8" rx="4" fill="#002c5f"/>
  <!-- خطوط فرعية -->
  <rect x="20" y="15" width="6" height="20" rx="3" fill="#f5b301"/>
  <rect x="34" y="15" width="6" height="20" rx="3" fill="#f5b301"/>
  <!-- صمامات -->
  <circle cx="23" cy="29" r="4" fill="#002c5f" stroke="#f5b301" stroke-width="2"/>
  <circle cx="37" cy="29" r="4" fill="#002c5f" stroke="#f5b301" stroke-width="2"/>
  <!-- شعلة الغاز -->
  <path d="M15 12 Q15 8 18 8 Q21 8 21 12 Q18 14 15 12" fill="#ff6b35"/>
  <path d="M39 12 Q39 8 42 8 Q45 8 45 12 Q42 14 39 12" fill="#ff6b35"/>
  <!-- نقاط الاتصال -->
  <circle cx="15" cy="29" r="2" fill="#f5b301"/>
  <circle cx="30" cy="29" r="2" fill="#f5b301"/>
  <circle cx="45" cy="29" r="2" fill="#f5b301"/>
</svg> 